<svg version="1.1" id="Layer_1" xmlns="http://www.w3.org/2000/svg" xmlns:xlink="http://www.w3.org/1999/xlink" x="0px" y="0px"
	 width="100%" viewBox="0 0 180 180" enable-background="new 0 0 180 180" xml:space="preserve">
<path fill="#FF6F1F" opacity="1.000000" stroke="none" 
	d="
M107.000000,181.000000 
	C71.333336,181.000000 36.166672,181.000000 1.000005,181.000000 
	C1.000003,121.000008 1.000003,61.000011 1.000002,1.000013 
	C60.999989,1.000009 120.999977,1.000009 180.999969,1.000004 
	C180.999985,60.999985 180.999985,120.999969 181.000000,180.999969 
	C156.500000,181.000000 132.000000,181.000000 107.000000,181.000000 
M99.232300,108.998566 
	C97.492973,109.540741 95.753639,110.082916 93.091667,110.807709 
	C86.779526,110.807709 80.467377,110.807709 74.155235,110.807709 
	C74.029640,111.439957 73.904053,112.072212 73.778458,112.704460 
	C79.438210,115.329994 84.886826,118.711334 90.817238,120.367996 
	C96.720062,122.016945 99.732826,124.425682 98.312675,130.756287 
	C98.259575,130.992996 98.585167,131.314682 98.784332,131.691452 
	C101.762115,131.691452 104.769234,131.691452 107.918541,131.691452 
	C107.918541,128.573074 107.918541,125.944633 107.918541,124.660309 
	C116.707130,119.963585 124.805168,115.635902 132.589905,110.583908 
	C130.951538,110.056358 129.331924,109.157516 127.671135,109.073586 
	C123.362442,108.855820 119.020096,109.210548 114.723030,108.898338 
	C112.760498,108.755745 110.873016,107.580345 109.342979,106.333771 
	C124.686981,96.368927 126.452141,75.917694 112.830864,64.890350 
	C112.268494,68.984863 111.713470,73.025879 110.401588,77.043930 
	C109.897308,77.021103 109.393036,76.998276 108.829109,76.060013 
	C109.422852,68.186371 108.128883,60.764751 103.654022,54.000816 
	C104.755745,65.829430 95.051598,72.714333 91.029144,82.154999 
	C91.633698,78.382225 92.904289,74.867485 94.251015,71.382156 
	C95.584419,67.931290 96.994629,64.510101 98.371155,61.075901 
	C93.843208,65.607254 90.031860,70.411964 86.728424,75.543633 
	C81.569702,83.557335 82.127258,91.420837 88.682472,98.344391 
	C92.298309,102.163391 96.804138,105.139748 100.623924,108.695221 
	C100.423256,108.812050 100.215179,108.913750 99.232300,108.998566 
M92.486443,42.312710 
	C93.657471,41.902500 94.828499,41.492287 96.481819,40.916420 
	C96.651031,40.932571 96.820251,40.948727 97.709297,41.359230 
	C102.475723,41.228054 107.242142,41.096882 112.809547,40.929558 
	C119.693375,43.161320 126.577202,45.393082 133.315796,47.577759 
	C133.315796,41.804039 133.466827,35.541443 133.175201,29.299528 
	C133.123322,28.188671 131.427612,26.661503 130.163788,26.173063 
	C103.882523,16.015913 74.464882,22.450241 55.098984,42.467297 
	C31.791597,66.558372 28.193106,103.696716 46.605701,130.122284 
	C65.357872,157.035202 102.630531,167.516495 132.866028,154.282455 
	C134.507263,153.564072 136.837433,152.130737 137.028519,150.774094 
	C137.988251,143.959747 138.342819,137.060181 138.900070,130.310333 
	C138.176163,130.115585 137.963058,129.984711 137.868912,130.043701 
	C135.619202,131.453323 133.412109,132.932922 131.138123,134.301544 
	C116.772041,142.947968 101.785004,144.300598 86.182785,138.026566 
	C65.553413,129.730972 53.044579,109.228622 54.873726,86.748177 
	C56.564556,65.967659 72.847145,46.337360 92.486443,42.312710 
M112.967613,63.471321 
	C108.689827,65.571075 113.297447,65.719261 114.123932,66.745361 
	C113.957260,65.919830 113.790588,65.094307 112.967613,63.471321 
z"/>
<path fill="#FFFDFC" opacity="1.000000" stroke="none" 
	d="
M96.989464,40.964886 
	C96.820251,40.948727 96.651031,40.932571 95.892685,40.957573 
	C94.201561,41.329708 93.099564,41.660683 91.997566,41.991657 
	C72.847145,46.337360 56.564556,65.967659 54.873726,86.748177 
	C53.044579,109.228622 65.553413,129.730972 86.182785,138.026566 
	C101.785004,144.300598 116.772041,142.947968 131.138123,134.301544 
	C133.412109,132.932922 135.619202,131.453323 137.868912,130.043701 
	C137.963058,129.984711 138.176163,130.115585 138.900070,130.310333 
	C138.342819,137.060181 137.988251,143.959747 137.028519,150.774094 
	C136.837433,152.130737 134.507263,153.564072 132.866028,154.282455 
	C102.630531,167.516495 65.357872,157.035202 46.605701,130.122284 
	C28.193106,103.696716 31.791597,66.558372 55.098984,42.467297 
	C74.464882,22.450241 103.882523,16.015913 130.163788,26.173063 
	C131.427612,26.661503 133.123322,28.188671 133.175201,29.299528 
	C133.466827,35.541443 133.315796,41.804039 133.315796,47.577759 
	C126.577202,45.393082 119.693375,43.161320 112.032982,40.783230 
	C106.500763,40.746227 101.745117,40.855556 96.989464,40.964886 
z"/>
<path fill="#FFFAF7" opacity="1.000000" stroke="none" 
	d="
M111.158455,77.066895 
	C111.713470,73.025879 112.268494,68.984863 112.830864,64.890350 
	C126.452141,75.917694 124.686981,96.368927 108.742294,106.694786 
	C105.730659,107.535858 103.319702,108.015915 100.908745,108.495972 
	C96.804138,105.139748 92.298309,102.163391 88.682472,98.344391 
	C82.127258,91.420837 81.569702,83.557335 86.728424,75.543633 
	C90.031860,70.411964 93.843208,65.607254 98.371155,61.075901 
	C96.994629,64.510101 95.584419,67.931290 94.251015,71.382156 
	C92.904289,74.867485 91.633698,78.382225 91.029144,82.154999 
	C95.051598,72.714333 104.755745,65.829430 103.654022,54.000816 
	C108.128883,60.764751 109.422852,68.186371 108.682480,76.842766 
	C107.370674,81.197319 106.119934,84.743988 105.061333,88.347099 
	C103.645859,93.164864 102.379372,98.026405 101.048599,103.197601 
	C101.266975,104.314842 101.485672,105.103615 101.704361,105.892395 
	C101.950745,105.879730 102.197128,105.867058 102.443512,105.854393 
	C102.612221,104.858093 102.780930,103.861794 102.990479,102.486954 
	C104.789017,97.519386 106.711601,92.984848 108.251793,88.323959 
	C109.465073,84.652367 110.207108,80.825043 111.158455,77.066895 
z"/>
<path fill="#FFFBF9" opacity="1.000000" stroke="none" 
	d="
M132.903214,111.308212 
	C124.805168,115.635902 116.707130,119.963585 107.918541,124.660309 
	C107.918541,125.944633 107.918541,128.573074 107.918541,131.691452 
	C104.769234,131.691452 101.762115,131.691452 98.784332,131.691452 
	C98.585167,131.314682 98.259575,130.992996 98.312675,130.756287 
	C99.732826,124.425682 96.720062,122.016945 90.817238,120.367996 
	C84.886826,118.711334 79.438210,115.329994 73.778458,112.704460 
	C73.904053,112.072212 74.029640,111.439957 74.155235,110.807709 
	C80.467377,110.807709 86.779526,110.807709 93.969955,110.796066 
	C96.257103,110.724915 97.665970,110.665390 99.531143,110.694214 
	C110.959373,110.957771 121.931297,111.132996 132.903214,111.308212 
z"/>
<path fill="#FF6916" opacity="1.000000" stroke="none" 
	d="
M132.746552,110.946060 
	C121.931297,111.132996 110.959373,110.957771 99.653412,110.497314 
	C99.546150,109.808151 99.772926,109.404228 99.999710,109.000305 
	C100.215179,108.913750 100.423256,108.812050 100.766335,108.595596 
	C103.319702,108.015915 105.730659,107.535858 108.546555,106.964584 
	C110.873016,107.580345 112.760498,108.755745 114.723030,108.898338 
	C119.020096,109.210548 123.362442,108.855820 127.671135,109.073586 
	C129.331924,109.157516 130.951538,110.056358 132.746552,110.946060 
z"/>
<path fill="#FF762B" opacity="1.000000" stroke="none" 
	d="
M110.780022,77.055412 
	C110.207108,80.825043 109.465073,84.652367 108.251793,88.323959 
	C106.711601,92.984848 104.789017,97.519386 102.675117,102.537941 
	C101.895576,102.934700 101.472244,102.901924 101.048904,102.869156 
	C102.379372,98.026405 103.645859,93.164864 105.061333,88.347099 
	C106.119934,84.743988 107.370674,81.197319 108.712311,77.300484 
	C109.393036,76.998276 109.897308,77.021103 110.780022,77.055412 
z"/>
<path fill="#FF7A31" opacity="1.000000" stroke="none" 
	d="
M97.349380,41.162056 
	C101.745117,40.855556 106.500763,40.746227 111.632492,40.801308 
	C107.242142,41.096882 102.475723,41.228054 97.349380,41.162056 
z"/>
<path fill="#FF6714" opacity="1.000000" stroke="none" 
	d="
M99.616005,108.999435 
	C99.772926,109.404228 99.546150,109.808151 99.197098,110.408974 
	C97.665970,110.665390 96.257103,110.724915 94.431274,110.704765 
	C95.753639,110.082916 97.492973,109.540741 99.616005,108.999435 
z"/>
<path fill="#FF7A31" opacity="1.000000" stroke="none" 
	d="
M92.242004,42.152184 
	C93.099564,41.660683 94.201561,41.329708 95.651543,41.040405 
	C94.828499,41.492287 93.657471,41.902500 92.242004,42.152184 
z"/>
<path fill="#FFFAF7" opacity="1.000000" stroke="none" 
	d="
M113.295761,63.870049 
	C113.790588,65.094307 113.957260,65.919830 114.123932,66.745361 
	C113.297447,65.719261 108.689827,65.571075 113.295761,63.870049 
z"/>
<path fill="#FFFAF7" opacity="1.000000" stroke="none" 
	d="
M101.048592,103.197609 
	C101.472244,102.901924 101.895576,102.934700 102.634277,102.916489 
	C102.780930,103.861794 102.612221,104.858093 102.443512,105.854393 
	C102.197128,105.867058 101.950745,105.879730 101.704361,105.892395 
	C101.485672,105.103615 101.266975,104.314842 101.048592,103.197609 
z"/>
</svg>